<?xml version="1.0" encoding="UTF-8"?>
<svg id="Layer_1" data-name="Layer 1" xmlns="http://www.w3.org/2000/svg" version="1.1" viewBox="0 0 101 28">
  <defs>
    <style>
      .cls-1 {
        fill: #5b5b5b;
      }

      .cls-1, .cls-2 {
        stroke-width: 0px;
      }

      .cls-2 {
        fill: #141414;
      }

      .cls-3 {
        opacity: .6;
      }
    </style>
  </defs>
  <g>
    <g id="path233590">
      <path class="cls-2" d="M.5,19.9l-.5-.5,2.4-2.9.6.8c.5.6,1.1,1.1,1.8,1.4.7.3,1.4.5,2.1.5s1.5-.2,2-.5c.4-.3.6-.7.6-1.2s-.2-.9-.6-1.2c-.5-.4-1.3-.7-2.3-1.1,0,0-.2,0-.2,0-1.3-.5-2.6-1-3.6-1.8-.6-.5-1-1-1.3-1.6-.3-.7-.5-1.4-.5-2.2,0-1.4.6-2.7,1.7-3.7,1.1-.9,2.5-1.5,4.1-1.5s4,.7,5.7,2.1l.6.5-2.2,2.9-.6-.5c-1.1-.9-2.4-1.5-3.4-1.5s-2.1.4-2.1,1.6c0,.5.2.8.6,1.1.6.4,1.4.7,2.4,1.1h0c.1,0,.3.1.4.2,1.3.5,2.6,1,3.5,1.8,1.1.9,1.7,2.1,1.7,3.7s-.2,1.6-.5,2.4c-.3.7-.8,1.2-1.5,1.7-1.1.9-2.7,1.4-4.3,1.4-2.4,0-4.7-1-6.4-2.8Z" vector-effect="non-scaling-stroke"/>
    </g>
    <g id="path233592">
      <path class="cls-2" d="M19,7.9h-4.9v-3.4h13.5v3.4h-5v14.6h-3.6V7.9Z" vector-effect="non-scaling-stroke"/>
    </g>
    <g id="path233594">
      <path class="cls-2" d="M32.9,22.1c-.8-.4-1.6-.9-2.3-1.5-.7-.7-1.2-1.4-1.5-2.3-.4-.9-.6-1.8-.6-2.8V4.5h3.6v11c0,1.9,1.6,3.5,3.5,3.5s3.5-1.6,3.5-3.5V4.5h3.6v11c0,1-.2,1.9-.6,2.8-.4.8-.9,1.6-1.5,2.3-.7.7-1.4,1.2-2.3,1.5-.9.4-1.8.6-2.8.6s-1.9-.2-2.8-.6Z" vector-effect="non-scaling-stroke"/>
    </g>
    <g id="path233596">
      <path class="cls-2" d="M45,22.6V4.5h5.9c1.2,0,2.4.2,3.5.7,1.1.4,2.1,1.1,2.9,1.9.8.8,1.5,1.8,2,2.9.5,1.1.7,2.3.7,3.5s-.2,2.4-.7,3.5c-.5,1.1-1.1,2-2,2.9-.8.8-1.8,1.5-2.9,1.9-1.1.5-2.3.7-3.5.7h-5.9ZM50.9,18.9c1.5,0,2.9-.6,3.9-1.6,1-1,1.6-2.4,1.6-3.8s-.6-2.8-1.6-3.8c-1-1-2.4-1.6-3.9-1.6h-2.3v10.8h2.3Z" vector-effect="non-scaling-stroke"/>
    </g>
    <g id="path233598">
      <path class="cls-2" d="M61.9,5.7l3.6-1.2v18.1h-3.6V5.7Z" vector-effect="non-scaling-stroke"/>
    </g>
    <g id="path233600">
      <path class="cls-2" d="M72.9,21.9c-1.1-.5-2.1-1.1-2.9-2-.8-.8-1.5-1.8-2-2.9-.5-1.1-.7-2.3-.7-3.6s.2-2.4.7-3.6c.5-1.1,1.1-2.1,2-2.9.8-.8,1.8-1.5,2.9-2,1.1-.5,2.3-.7,3.6-.7s2.4.2,3.6.7c1.1.5,2.1,1.1,2.9,2,.8.8,1.5,1.8,2,2.9.5,1.1.7,2.3.7,3.6s-.2,2.4-.7,3.6c-.5,1.1-1.1,2.1-2,2.9-.8.8-1.8,1.5-2.9,2-1.1.5-2.3.7-3.6.7s-2.4-.2-3.6-.7ZM72.6,9.6c-1,1-1.6,2.4-1.6,3.9s.6,2.9,1.6,3.9c1,1,2.4,1.6,3.9,1.6s2.9-.6,3.9-1.6c1-1,1.6-2.4,1.6-3.9s-.6-2.9-1.6-3.9c-1-1-2.4-1.6-3.9-1.6s-2.8.6-3.9,1.6Z" vector-effect="non-scaling-stroke"/>
    </g>
    <g id="path233602">
      <polygon class="cls-2" points="96.6 4.5 92.5 10.5 88.4 4.5 84.2 4.5 90.2 13.5 84.1 22.6 88.4 22.6 92.5 16.5 92.5 16.5 100.8 4.5 96.6 4.5" vector-effect="non-scaling-stroke"/>
    </g>
  </g>
  <g id="path233602-2" data-name="path233602" class="cls-3">
    <polygon class="cls-1" points="97.9 18.1 93.6 18.1 96.6 22.6 101 22.6 97.9 18.1" vector-effect="non-scaling-stroke"/>
  </g>
</svg>