<?xml version="1.0" encoding="UTF-8"?>
<svg id="Layer_1" data-name="Layer 1" xmlns="http://www.w3.org/2000/svg" version="1.1" viewBox="0 0 68 19">
  <defs>
    <style>
      .cls-1 {
        opacity: .6;
      }

      .cls-2 {
        fill: #fefefe;
      }

      .cls-2, .cls-3 {
        stroke-width: 0px;
      }

      .cls-3 {
        fill: #a3a3a3;
      }
    </style>
  </defs>
  <g>
    <g id="path233590">
      <path class="cls-2" d="M.9,13.7l-.3-.3,1.6-1.9.4.5c.3.4.7.7,1.2,1,.4.2.9.3,1.4.3s1-.1,1.3-.3c.3-.2.4-.5.4-.8s-.1-.6-.4-.8c-.3-.3-.9-.5-1.5-.7,0,0-.1,0-.2,0-.9-.3-1.7-.7-2.4-1.2-.4-.3-.7-.7-.9-1-.2-.4-.3-.9-.3-1.5,0-.9.4-1.8,1.1-2.5.7-.6,1.7-1,2.7-1s2.6.5,3.8,1.4l.4.3-1.5,1.9-.4-.4c-.8-.6-1.6-1-2.3-1s-1.4.3-1.4,1.1c0,.4.2.5.4.7.4.3,1,.5,1.6.7h0c0,0,.2,0,.3.1.9.3,1.7.7,2.3,1.2.7.6,1.1,1.4,1.1,2.5s-.1,1.1-.4,1.6c-.2.4-.5.8-1,1.1-.8.6-1.8.9-2.9.9-1.6,0-3.1-.7-4.2-1.9Z" vector-effect="non-scaling-stroke"/>
    </g>
    <g id="path233592">
      <path class="cls-2" d="M13.1,5.8h-3.3v-2.3h9v2.3h-3.3v9.7h-2.4V5.8Z" vector-effect="non-scaling-stroke"/>
    </g>
    <g id="path233594">
      <path class="cls-2" d="M22.3,15.2c-.6-.2-1.1-.6-1.5-1-.4-.4-.8-.9-1-1.5-.2-.6-.4-1.2-.4-1.8V3.5h2.4v7.3c0,1.3,1,2.3,2.3,2.3s2.3-1,2.3-2.3V3.5h2.4v7.3c0,.6-.1,1.3-.4,1.8-.2.6-.6,1.1-1,1.5-.4.4-.9.8-1.5,1-.6.2-1.2.4-1.8.4s-1.3-.1-1.8-.4Z" vector-effect="non-scaling-stroke"/>
    </g>
    <g id="path233596">
      <path class="cls-2" d="M30.3,15.5V3.5h3.9c.8,0,1.6.2,2.3.5.7.3,1.4.7,1.9,1.3.6.5,1,1.2,1.3,1.9.3.7.5,1.5.5,2.3s-.2,1.6-.5,2.4c-.3.7-.7,1.4-1.3,1.9-.6.5-1.2,1-1.9,1.3-.7.3-1.5.5-2.3.5h-3.9ZM34.3,13.1c1,0,1.9-.4,2.6-1,.7-.7,1.1-1.6,1.1-2.5s-.4-1.9-1.1-2.5c-.7-.7-1.6-1-2.6-1h-1.5v7.2h1.5Z" vector-effect="non-scaling-stroke"/>
    </g>
    <g id="path233598">
      <path class="cls-2" d="M41.6,4.3l2.4-.8v12h-2.4V4.3Z" vector-effect="non-scaling-stroke"/>
    </g>
    <g id="path233600">
      <path class="cls-2" d="M48.9,15.1c-.7-.3-1.4-.7-1.9-1.3-.6-.6-1-1.2-1.3-1.9-.3-.7-.5-1.5-.5-2.4s.2-1.6.5-2.4c.3-.7.7-1.4,1.3-1.9.6-.6,1.2-1,1.9-1.3.7-.3,1.5-.5,2.4-.5s1.6.2,2.4.5c.7.3,1.4.7,1.9,1.3.6.6,1,1.2,1.3,1.9.3.7.5,1.5.5,2.4s-.2,1.6-.5,2.4c-.3.7-.7,1.4-1.3,1.9-.6.6-1.2,1-1.9,1.3-.7.3-1.5.5-2.4.5s-1.6-.2-2.4-.5ZM48.6,6.9c-.7.7-1.1,1.6-1.1,2.6s.4,1.9,1.1,2.6c.7.7,1.6,1.1,2.6,1.1s1.9-.4,2.6-1.1c.7-.7,1.1-1.6,1.1-2.6s-.4-1.9-1.1-2.6c-.7-.7-1.6-1.1-2.6-1.1s-1.9.4-2.6,1.1Z" vector-effect="non-scaling-stroke"/>
    </g>
    <g id="path233602">
      <polygon class="cls-2" points="64.6 3.5 61.9 7.5 59.1 3.5 56.3 3.5 60.3 9.5 56.3 15.5 59.1 15.5 61.8 11.5 61.8 11.5 67.3 3.5 64.6 3.5" vector-effect="non-scaling-stroke"/>
    </g>
  </g>
  <g id="path233602-2" data-name="path233602" class="cls-1">
    <polygon class="cls-3" points="65.5 12.5 62.6 12.5 64.6 15.5 67.5 15.5 65.5 12.5" vector-effect="non-scaling-stroke"/>
  </g>
</svg>