<?xml version="1.0" encoding="UTF-8"?>
<svg id="Layer_1" data-name="Layer 1" xmlns="http://www.w3.org/2000/svg" version="1.1" viewBox="0 0 25 91">
  <defs>
    <style>
      .cls-1 {
        opacity: .6;
      }

      .cls-2 {
        fill: #fefefe;
      }

      .cls-2, .cls-3, .cls-4 {
        stroke-width: 0px;
      }

      .cls-3 {
        fill: #a3a3a3;
      }

      .cls-4 {
        fill: #fff;
      }
    </style>
  </defs>
  <path class="cls-4" d="M19.1,3.3h-3.5V0h3.5v3.3Z"/>
  <g>
    <g>
      <g id="path233590">
        <path class="cls-2" d="M17.9,87.4l-.4.4-2.4-2,.7-.5c.5-.4.9-.9,1.2-1.5.3-.6.4-1.2.4-1.7s-.2-1.3-.4-1.7c-.2-.3-.6-.5-1-.5s-.8.1-1,.5c-.3.4-.6,1.1-.9,1.9,0,0,0,.1,0,.2-.4,1.1-.8,2.2-1.5,3-.4.5-.8.9-1.3,1.1-.6.3-1.2.4-1.9.4-1.2,0-2.3-.5-3.1-1.5-.8-.9-1.2-2.1-1.2-3.4s.6-3.3,1.8-4.8l.4-.5,2.4,1.9-.4.5c-.8,1-1.2,2-1.2,2.9s.4,1.8,1.4,1.8c.4,0,.7-.2.9-.5.3-.5.6-1.2.9-2h0c0-.1,0-.3.1-.4.4-1.1.8-2.2,1.5-2.9.8-.9,1.8-1.4,3.1-1.4s1.4.2,2,.5c.6.3,1,.7,1.4,1.2.7,1,1.1,2.2,1.1,3.6,0,2-.8,4-2.4,5.4Z" vector-effect="non-scaling-stroke"/>
      </g>
      <g id="path233592">
        <path class="cls-2" d="M7.8,72v4.1h-2.9v-11.3h2.9v4.2h12.3v3.1H7.8Z" vector-effect="non-scaling-stroke"/>
      </g>
      <g id="path233594">
        <path class="cls-2" d="M19.7,60.3c-.3.7-.7,1.4-1.3,1.9-.5.5-1.2,1-1.9,1.3-.7.3-1.5.5-2.3.5H4.9v-3.1h9.3c1.6,0,2.9-1.3,2.9-2.9s-1.3-2.9-2.9-2.9H4.9v-3.1h9.3c.8,0,1.6.2,2.3.5.7.3,1.4.7,1.9,1.3.5.5,1,1.2,1.3,1.9.3.7.5,1.5.5,2.3s-.2,1.6-.5,2.3Z" vector-effect="non-scaling-stroke"/>
      </g>
      <g id="path233596">
        <path class="cls-2" d="M20.1,50.1H4.9v-5c0-1,.2-2,.6-3,.4-.9.9-1.7,1.6-2.4.7-.7,1.5-1.3,2.4-1.6.9-.4,1.9-.6,3-.6s2,.2,3,.6c.9.4,1.7.9,2.4,1.6.7.7,1.2,1.5,1.6,2.4.4.9.6,1.9.6,3v5h0ZM17.1,45.2c0-1.2-.5-2.4-1.3-3.3-.9-.9-2-1.3-3.2-1.3s-2.4.5-3.2,1.3c-.9.9-1.3,2-1.3,3.3v1.9h9.1v-1.9Z" vector-effect="non-scaling-stroke"/>
      </g>
      <g id="path233598">
        <path class="cls-2" d="M5.9,35.9l-1-3.1h15.2v3.1H5.9Z" vector-effect="non-scaling-stroke"/>
      </g>
      <g id="path233600">
        <path class="cls-2" d="M19.6,26.7c-.4.9-.9,1.7-1.6,2.4-.7.7-1.5,1.3-2.4,1.6-.9.4-2,.6-3,.6s-2-.2-3-.6c-.9-.4-1.7-.9-2.4-1.6-.7-.7-1.3-1.5-1.6-2.4-.4-.9-.6-2-.6-3s.2-2,.6-3c.4-.9.9-1.7,1.6-2.4.7-.7,1.5-1.3,2.4-1.6.9-.4,2-.6,3-.6s2,.2,3,.6c.9.4,1.7.9,2.4,1.6.7.7,1.3,1.5,1.6,2.4.4.9.6,2,.6,3s-.2,2-.6,3ZM9.2,27c.9.9,2,1.4,3.3,1.4s2.4-.5,3.3-1.4c.9-.9,1.4-2,1.4-3.3s-.5-2.4-1.4-3.3c-.9-.9-2-1.4-3.3-1.4s-2.4.5-3.3,1.4c-.9.9-1.4,2-1.4,3.3s.5,2.4,1.4,3.3Z" vector-effect="non-scaling-stroke"/>
      </g>
      <g id="path233602">
        <polygon class="cls-2" points="4.9 6.8 10 10.2 4.9 13.7 4.9 17.3 12.5 12.2 20.1 17.3 20.1 13.7 15 10.3 15 10.3 4.9 3.3 4.9 6.8" vector-effect="non-scaling-stroke"/>
      </g>
    </g>
    <g id="path233602-2" data-name="path233602" class="cls-1">
      <polygon class="cls-3" points="16.4 5.7 16.4 9.4 20.1 6.8 20.1 3.1 16.4 5.7" vector-effect="non-scaling-stroke"/>
    </g>
  </g>
</svg>